<svg width="24" height="24" viewBox="0 0 24 24" fill="none" xmlns="http://www.w3.org/2000/svg">
<path d="M20.6829 22.3754H16.7491C16.268 22.3754 15.8779 21.9853 15.8779 21.5042V18.6349C15.8779 18.1538 16.268 17.7637 16.7491 17.7637H20.6829C21.1641 17.7637 21.5542 18.1538 21.5542 18.6349V21.5042C21.5542 21.9853 21.1641 22.3754 20.6829 22.3754Z" fill="#48AEE2"/>
<path d="M7.25086 22.3754H3.31702C2.83589 22.3754 2.4458 21.9853 2.4458 21.5042V18.6349C2.4458 18.1538 2.83589 17.7637 3.31702 17.7637H7.25082C7.73194 17.7637 8.12204 18.1538 8.12204 18.6349V21.5042C8.12208 21.9853 7.73199 22.3754 7.25086 22.3754Z" fill="#74B8E5"/>
<path d="M21.6001 19.5064H2.39991C1.07658 19.5064 0 18.4299 0 17.1064V4.02437C0 2.70109 1.07658 1.62451 2.39991 1.62451H21.6001C22.9234 1.62451 24 2.70109 24 4.02437V17.1064C24 18.4299 22.9234 19.5064 21.6001 19.5064Z" fill="#39A3DB"/>
<path d="M21.6001 1.62451H12V19.5064H21.6001C22.9234 19.5064 24 18.4299 24 17.1065V4.02437C24 2.70109 22.9235 1.62451 21.6001 1.62451Z" fill="#2F86EB"/>
<path d="M20.6828 15.442H3.31702C2.83589 15.442 2.4458 15.0519 2.4458 14.5708V4.94153C2.4458 4.46041 2.83589 4.07031 3.31702 4.07031H20.6828C21.1639 4.07031 21.554 4.46041 21.554 4.94153V14.5707C21.5541 15.0519 21.164 15.442 20.6828 15.442Z" fill="white"/>
<path d="M17.8431 18.0271C18.2449 18.0271 18.5705 17.7014 18.5705 17.2997C18.5705 16.8979 18.2449 16.5723 17.8431 16.5723C17.4414 16.5723 17.1157 16.8979 17.1157 17.2997C17.1157 17.7014 17.4414 18.0271 17.8431 18.0271Z" fill="#FF5E5B"/>
<path d="M20.0038 18.0271C20.4055 18.0271 20.7312 17.7014 20.7312 17.2997C20.7312 16.8979 20.4055 16.5723 20.0038 16.5723C19.602 16.5723 19.2764 16.8979 19.2764 17.2997C19.2764 17.7014 19.602 18.0271 20.0038 18.0271Z" fill="#FF5E5B"/>
<path d="M20.6829 4.07031H12V15.442H20.6829C21.164 15.442 21.5541 15.0519 21.5541 14.5707V4.94153C21.5542 4.46041 21.1641 4.07031 20.6829 4.07031Z" fill="white"/>
<path d="M21.5541 8.88509H17.2077L15.4855 7.56467C15.1368 7.29725 14.6437 7.33142 14.3351 7.64427L12.1402 9.86938L10.3866 7.16998C10.1038 6.7347 9.50415 6.64147 9.10266 6.9717L6.77564 8.88514H2.4458V10.6276H7.08779C7.28963 10.6276 7.48524 10.5575 7.64114 10.4293L9.45643 8.93666L11.2692 11.7269C11.5728 12.1943 12.23 12.2594 12.62 11.8641L15.0356 9.41544L16.382 10.4478C16.5341 10.5644 16.7205 10.6276 16.9121 10.6276H21.5541L21.5541 8.88509Z" fill="#FFC72D"/>
<path d="M17.2077 8.88508L15.4855 7.56466C15.1369 7.29723 14.6437 7.33141 14.3352 7.64425L12.1403 9.86936L12 9.65345V12.1235C12.2318 12.1235 12.4555 12.0309 12.62 11.8641L15.0356 9.41542L16.3821 10.4478C16.5342 10.5644 16.7205 10.6276 16.9122 10.6276H21.5542V8.88513H17.2078V8.88508H17.2077Z" fill="#FFBE00"/>
</svg>
