<svg width="27" height="27" viewBox="0 0 27 27" fill="none" xmlns="http://www.w3.org/2000/svg">
<path d="M11.821 25.0049L2.50283 15.6868C-2.80606 10.3779 0.890737 1.3269 8.34006 1.29937C8.35066 1.29932 8.36147 1.29932 8.37207 1.29932C10.2524 1.29932 12.0372 1.91315 13.4997 3.04725C14.9704 1.90676 16.7699 1.29357 18.6592 1.29937C26.1043 1.3269 29.809 10.3742 24.4964 15.6868L15.1782 25.005C14.2506 25.9327 12.7489 25.9329 11.821 25.0049Z" fill="#FF5E5B"/>
<path d="M6.11031 12.1996C7.12318 12.1996 7.94426 11.3785 7.94426 10.3657C7.94426 9.35282 7.12318 8.53174 6.11031 8.53174C5.09745 8.53174 4.27637 9.35282 4.27637 10.3657C4.27637 11.3785 5.09745 12.1996 6.11031 12.1996Z" fill="#FF423D"/>
<path d="M8.37359 15.0221C8.90299 15.0221 9.33215 14.5929 9.33215 14.0635C9.33215 13.5341 8.90299 13.105 8.37359 13.105C7.8442 13.105 7.41504 13.5341 7.41504 14.0635C7.41504 14.5929 7.8442 15.0221 8.37359 15.0221Z" fill="#FF423D"/>
<path d="M18.6595 1.29936C16.7702 1.2935 14.9706 1.90675 13.5 3.04724V25.7003C14.8365 25.7003 14.4224 25.7612 24.4968 15.6868C29.8055 10.3781 26.1093 1.32678 18.6595 1.29936Z" fill="#FF423D"/>
</svg>
