<svg width="26" height="26" viewBox="0 0 26 26" fill="none" xmlns="http://www.w3.org/2000/svg">
<g clip-path="url(#clip0_13127_7047)">
<path d="M16.7035 16.809V17.0574C16.5482 17.0574 16.4034 17.047 16.248 17.0367C14.9475 16.9208 13.7439 16.3005 12.8949 15.3084C12.0405 16.299 10.8344 16.9188 9.53149 17.0367C9.3762 17.047 9.23137 17.0574 9.07609 17.0574V16.809C9.07609 13.8732 12.2541 12.0384 14.7966 13.5063C15.9766 14.1875 16.7035 15.4465 16.7035 16.809Z" fill="#C77F67" stroke="#191919" stroke-linecap="round" stroke-linejoin="round"/>
<path d="M9.07655 17.0574V17.5335C9.10739 18.4875 8.85928 19.4298 8.36251 20.2449" stroke="#191919" stroke-linecap="round" stroke-linejoin="round"/>
<path d="M16.7033 17.0574V17.5335C16.6693 18.4865 16.9139 19.4287 17.4071 20.2449" stroke="#191919" stroke-linecap="round" stroke-linejoin="round"/>
<path d="M16.2476 17.0367C16.1041 19.622 13.2158 21.0823 11.0487 19.6654C10.1537 19.0802 9.59025 18.1043 9.53101 17.0367C10.834 16.9187 12.04 16.2989 12.8945 15.3083C13.7434 16.3006 14.947 16.9209 16.2476 17.0367Z" fill="#FFDDA1" stroke="#191919" stroke-linecap="round" stroke-linejoin="round"/>
<path d="M17.9411 24.902C15.9739 21.0127 10.5338 20.7115 8.14918 24.3599C8.0349 24.5348 7.93046 24.7157 7.83618 24.902" fill="#2F86EB"/>
<path d="M17.9411 24.902C15.9739 21.0127 10.5338 20.7115 8.14918 24.3599C8.0349 24.5348 7.93046 24.7157 7.83618 24.902" stroke="#191919" stroke-linecap="round" stroke-linejoin="round"/>
<path d="M17.6542 9.83361L18.5856 10.4815L17.5911 12.7675C17.4307 13.153 17.7476 13.5675 18.1617 13.5137C18.2327 13.5045 18.3011 13.4813 18.363 13.4455L20.7683 12.0928L23.1735 13.4455C23.5361 13.6537 23.9882 13.3913 23.9873 12.973C23.9872 12.9025 23.9733 12.8327 23.9465 12.7675L22.9509 10.4815L24.7476 9.22917C25.0385 8.96898 24.9388 8.49132 24.5679 8.36943C24.5112 8.35068 24.4513 8.34219 24.3915 8.34434H22.3217L21.2588 5.53554C21.066 5.15997 20.5388 5.13391 20.3099 5.48868C20.3002 5.50391 20.2912 5.51952 20.2828 5.53554L19.219 8.34326H18.1716" fill="#FFEF5E"/>
<path d="M22.3261 8.3433L21.2592 5.53557C21.0663 5.15991 20.5392 5.13394 20.3102 5.48871C20.3005 5.50394 20.2915 5.51955 20.2831 5.53557L19.2193 8.3433H18.1721L17.6545 9.83256L18.586 10.4804L17.5914 12.7665C17.5468 12.8768 17.5401 12.9989 17.5728 13.1132L22.3479 8.3433H22.3261Z" fill="#FFF9BF"/>
<path d="M8.34014 9.83366L7.40876 10.4815L8.40426 12.7676C8.56472 13.1531 8.24771 13.5675 7.83371 13.5137C7.76275 13.5046 7.69424 13.4813 7.63226 13.4456L5.23542 12.0929L2.82716 13.4456C2.4676 13.6561 2.01494 13.3983 2.01239 12.9817C2.0119 12.9082 2.02645 12.8353 2.05504 12.7676L3.05066 10.4814L1.25405 9.22923C0.962032 8.97009 1.06012 8.49206 1.43051 8.36879C1.48936 8.34917 1.55124 8.34058 1.61322 8.34332H3.683L4.74898 5.53461C4.94359 5.15895 5.4718 5.13483 5.69979 5.49108C5.70887 5.50523 5.71716 5.51968 5.72488 5.53461L6.78773 8.34332H7.82268" fill="#FFEF5E"/>
<path d="M2.03632 12.9901L6.75651 8.2698L5.72157 5.53557C5.52882 5.15991 5.00158 5.13394 4.77271 5.48871C4.76295 5.50394 4.75397 5.51955 4.74567 5.53557L3.68282 8.3433H1.61303C1.22283 8.32944 0.963997 8.74307 1.14699 9.08788C1.1751 9.14078 1.21228 9.18822 1.25699 9.22813L3.05359 10.4804L2.05799 12.7665C2.03476 12.8386 2.02744 12.9149 2.03632 12.9901Z" fill="#FFF9BF"/>
<path d="M13.4972 1.39598L14.5611 4.20372H16.631C17.0211 4.18897 17.2808 4.60211 17.0985 4.94732C17.0704 5.00061 17.0329 5.04843 16.9881 5.08855L15.1914 6.34182L16.1871 8.62799C16.3474 9.0134 16.0304 9.42791 15.6165 9.37413C15.5454 9.36486 15.4769 9.34173 15.415 9.3059L13.0097 7.95327L10.6036 9.3059C10.2422 9.51477 9.79018 9.25408 9.78997 8.83665C9.78988 8.76502 9.80404 8.69406 9.83155 8.62799L10.824 6.34182L9.03056 5.08962C8.73776 4.83255 8.83302 4.35499 9.20204 4.22997C9.26138 4.20986 9.32394 4.20098 9.38651 4.20372H11.4564L12.5213 1.39598C12.7141 1.02032 13.2413 0.994356 13.4702 1.34913C13.48 1.36435 13.4891 1.37998 13.4972 1.39598Z" fill="#FFEF5E"/>
<path d="M14.5613 4.20366L13.4975 1.39591C13.3029 1.02026 12.7746 0.996153 12.5465 1.35248C12.5376 1.36655 12.5292 1.38108 12.5215 1.39591L11.4566 4.20366H9.38669C8.9966 4.1898 8.73776 4.60342 8.92076 4.94824C8.94887 5.00114 8.98606 5.04857 9.03075 5.08849L10.8242 6.34079L9.83175 8.62695C9.78676 8.7467 9.78676 8.87866 9.83175 8.99841L14.6234 4.20366H14.5613Z" fill="#FFF9BF"/>
<path d="M13.4972 1.39598L14.5611 4.20372H16.631C17.0211 4.18897 17.2808 4.60211 17.0985 4.94732C17.0704 5.00061 17.0329 5.04843 16.9881 5.08855L15.1914 6.34182L16.1871 8.62799C16.3474 9.0134 16.0304 9.42791 15.6165 9.37413C15.5454 9.36486 15.4769 9.34173 15.415 9.3059L13.0097 7.95327L10.6036 9.3059C10.2422 9.51477 9.79018 9.25408 9.78997 8.83665C9.78988 8.76502 9.80404 8.69406 9.83155 8.62799L10.824 6.34182L9.03056 5.08962C8.73776 4.83255 8.83302 4.35499 9.20204 4.22997C9.26138 4.20986 9.32394 4.20098 9.38651 4.20372H11.4564L12.5213 1.39598C12.7141 1.02032 13.2413 0.994356 13.4702 1.34913C13.48 1.36435 13.4891 1.37998 13.4972 1.39598Z" stroke="#191919" stroke-linecap="round" stroke-linejoin="round"/>
<path d="M8.34014 9.83366L7.40876 10.4815L8.40426 12.7676C8.56472 13.1531 8.24771 13.5675 7.83371 13.5137C7.76275 13.5046 7.69424 13.4813 7.63226 13.4456L5.23542 12.0929L2.82716 13.4456C2.4676 13.6561 2.01494 13.3983 2.01239 12.9817C2.0119 12.9082 2.02645 12.8353 2.05504 12.7676L3.05066 10.4814L1.25405 9.22923C0.962032 8.97009 1.06012 8.49206 1.43051 8.36879C1.48936 8.34917 1.55124 8.34058 1.61322 8.34332H3.683L4.74898 5.53461C4.94359 5.15895 5.4718 5.13483 5.69979 5.49108C5.70887 5.50523 5.71716 5.51968 5.72488 5.53461L6.78773 8.34332H7.82268" stroke="#191919" stroke-linecap="round" stroke-linejoin="round"/>
<path d="M17.6542 9.83361L18.5856 10.4815L17.5911 12.7675C17.4307 13.153 17.7476 13.5675 18.1617 13.5137C18.2327 13.5045 18.3011 13.4813 18.363 13.4455L20.7683 12.0928L23.1735 13.4455C23.5361 13.6537 23.9882 13.3913 23.9873 12.973C23.9872 12.9025 23.9733 12.8327 23.9465 12.7675L22.9508 10.4815L24.7476 9.22917C25.0385 8.96898 24.9388 8.49132 24.5679 8.36943C24.5112 8.35068 24.4513 8.34219 24.3915 8.34434H22.3217L21.2588 5.53554C21.066 5.15997 20.5388 5.13391 20.3099 5.48868C20.3002 5.50391 20.2912 5.51952 20.2828 5.53554L19.219 8.34326H18.1716" stroke="#191919" stroke-linecap="round" stroke-linejoin="round"/>
</g>
<defs>
<clipPath id="clip0_13127_7047">
<rect width="26" height="26" fill="white"/>
</clipPath>
</defs>
</svg>
