<svg width="26" height="26" viewBox="0 0 26 26" fill="none" xmlns="http://www.w3.org/2000/svg">
<g clip-path="url(#clip0_13127_7012)">
<path d="M21.2897 3.67419H4.71044C4.13816 3.67419 3.67423 4.13812 3.67423 4.7104V21.2897C3.67423 21.862 4.13816 22.3259 4.71044 22.3259H21.2897C21.862 22.3259 22.3259 21.862 22.3259 21.2897V4.7104C22.3259 4.13812 21.862 3.67419 21.2897 3.67419Z" fill="#2F86EB"/>
<path d="M8.33677 24.9164H2.11954C1.84471 24.9164 1.58116 24.8072 1.38683 24.6128C1.1925 24.4186 1.08334 24.155 1.08334 23.8802V17.6629" stroke="#191919" stroke-linecap="round" stroke-linejoin="round"/>
<path d="M8.33677 1.08368H2.11954C1.84471 1.08368 1.58116 1.19285 1.38683 1.38718C1.1925 1.58149 1.08334 1.84506 1.08334 2.11988V8.33711" stroke="#191919" stroke-linecap="round" stroke-linejoin="round"/>
<path d="M17.6634 24.9164H23.8807C24.1554 24.9164 24.4191 24.8072 24.6133 24.6128C24.8077 24.4186 24.9169 24.155 24.9169 23.8802V17.6629" stroke="#191919" stroke-linecap="round" stroke-linejoin="round"/>
<path d="M17.6634 1.08368H23.8807C24.1554 1.08368 24.4191 1.19285 24.6133 1.38718C24.8077 1.58149 24.9169 1.84506 24.9169 2.11988V8.33711" stroke="#191919" stroke-linecap="round" stroke-linejoin="round"/>
<path d="M18.6991 19.7353C18.6991 18.2238 18.0986 16.7742 17.0299 15.7054C15.9611 14.6367 14.5115 14.0362 13 14.0362C11.4884 14.0362 10.0389 14.6367 8.9701 15.7054C7.9013 16.7742 7.30087 18.2238 7.30087 19.7353H18.6991Z" fill="#E3E3E3"/>
<path d="M16.2654 8.65838C15.5721 8.95921 14.8243 9.1144 14.0686 9.1143C13.3162 9.11552 12.5713 8.96469 11.8786 8.67089C11.186 8.37708 10.5598 7.94636 10.0378 7.40456C10.3919 6.80184 10.9252 6.32458 11.5635 6.03924C12.2017 5.7539 12.9129 5.67471 13.5982 5.81269C14.2836 5.95065 14.9088 6.29894 15.3869 6.80901C15.865 7.31908 16.172 7.96555 16.2654 8.65838Z" fill="#C77F67"/>
<path d="M13.0052 15.6941C14.2268 15.6937 15.4162 16.0864 16.3973 16.8142C17.3785 17.542 18.0995 18.5662 18.4535 19.7353H18.6991C18.6991 18.2238 18.0986 16.7742 17.0299 15.7054C15.9611 14.6367 14.5115 14.0362 13 14.0362C11.4884 14.0362 10.0389 14.6367 8.9701 15.7054C7.9013 16.7742 7.30087 18.2238 7.30087 19.7353H7.54747C7.90323 18.5653 8.62588 17.5407 9.60868 16.813C10.5915 16.0853 11.7822 15.693 13.0052 15.6941Z" fill="white"/>
<path d="M12.9391 7.40461C13.483 7.40509 14.0184 7.53856 14.4988 7.7934C14.9793 8.04823 15.3901 8.41671 15.6954 8.8667C15.8888 8.80723 16.0789 8.73806 16.2654 8.65946C16.1722 7.96657 15.8653 7.31998 15.3872 6.80978C14.9093 6.29956 14.2841 5.95114 13.5987 5.81303C12.9133 5.67494 12.202 5.75405 11.5637 6.03932C10.9254 6.32462 10.392 6.80187 10.0378 7.40461C10.2909 7.66671 10.5685 7.90405 10.8667 8.11338C11.4586 7.65161 12.1884 7.402 12.9391 7.40461Z" fill="#E3BFB3"/>
<path d="M18.6991 19.7353C18.6991 18.2238 18.0986 16.7742 17.0299 15.7054C15.9611 14.6367 14.5115 14.0362 13 14.0362C11.4884 14.0362 10.0389 14.6367 8.9701 15.7054C7.9013 16.7742 7.30087 18.2238 7.30087 19.7353H18.6991Z" stroke="#191919" stroke-linecap="round" stroke-linejoin="round"/>
<path d="M16.2734 8.65833H16.2638" stroke="#191919" stroke-linecap="round" stroke-linejoin="round"/>
<path d="M16.2654 8.65838C15.5721 8.95921 14.8243 9.1144 14.0686 9.1143C13.3162 9.11552 12.5713 8.96469 11.8786 8.67089C11.186 8.37708 10.5598 7.94636 10.0378 7.40456C10.3919 6.80184 10.9252 6.32458 11.5635 6.03924C12.2017 5.7539 12.9129 5.67471 13.5982 5.81269C14.2836 5.95065 14.9088 6.29894 15.3869 6.80901C15.865 7.31908 16.172 7.96555 16.2654 8.65838Z" stroke="#191919" stroke-linecap="round" stroke-linejoin="round"/>
<path d="M16.3055 9.11434C16.3055 10.0075 15.9507 10.8641 15.3191 11.4956C14.6875 12.1272 13.831 12.482 12.9378 12.482C12.0446 12.482 11.1881 12.1272 10.5565 11.4956C9.92496 10.8641 9.57014 10.0075 9.57014 9.11434C9.57336 8.51346 9.73415 7.92392 10.0364 7.4046C10.5585 7.9464 11.1847 8.37712 11.8773 8.67093C12.5699 8.96473 13.3149 9.11555 14.0673 9.11434C14.823 9.11444 15.5707 8.95925 16.2641 8.65841C16.2937 8.80853 16.3075 8.96134 16.3055 9.11434Z" fill="#FFDDA1" stroke="#191919" stroke-linecap="round" stroke-linejoin="round"/>
</g>
<defs>
<clipPath id="clip0_13127_7012">
<rect width="26" height="26" fill="white"/>
</clipPath>
</defs>
</svg>
