<svg width="26" height="26" viewBox="0 0 26 26" fill="none" xmlns="http://www.w3.org/2000/svg">
<path d="M20.4682 5.22831C20.6625 5.42259 20.7716 5.68613 20.7717 5.96092V23.8805C20.7717 24.1552 20.6625 24.4189 20.4682 24.6132C20.2739 24.8075 20.0104 24.9167 19.7355 24.9167H2.11956C1.84473 24.9167 1.58116 24.8075 1.38683 24.6132C1.19251 24.4189 1.08333 24.1552 1.08333 23.8805V2.11961C1.08333 1.84479 1.19251 1.58122 1.38683 1.38688C1.58116 1.19256 1.84473 1.08338 2.11956 1.08338H15.8942C16.1686 1.08262 16.432 1.19068 16.6268 1.38389L20.4682 5.22831Z" fill="#E3E3E3"/>
<path d="M18.5138 3.27087L16.6268 1.38389C16.432 1.19068 16.1686 1.08262 15.8942 1.08338H2.11956C1.84473 1.08338 1.58116 1.19256 1.38683 1.38688C1.19251 1.58122 1.08333 1.84479 1.08333 2.11961V20.7014L18.5138 3.27087Z" fill="white"/>
<path d="M20.4682 24.9167H2.11956C1.84473 24.9167 1.58116 24.8075 1.38683 24.6132C1.19251 24.4189 1.08333 24.1552 1.08333 23.8805V2.1196C1.08333 1.84477 1.19251 1.58121 1.38683 1.38688C1.58116 1.19255 1.84473 1.08337 2.11956 1.08337H15.8942C16.1683 1.08301 16.4315 1.19059 16.6268 1.38285L20.4682 5.22831C20.6625 5.42258 20.7716 5.68612 20.7717 5.96092L20.4682 24.6132" stroke="#191919" stroke-linecap="round" stroke-linejoin="round"/>
<g clip-path="url(#clip0_13127_7103)">
<path d="M12.7533 14.1205L11.2929 12.2425L12.193 11.5066C12.2528 11.4576 12.3276 11.4308 12.4048 11.4306H14.9509C15.2185 11.4306 15.4751 11.3242 15.6643 11.135C15.8536 10.9458 15.9598 10.6892 15.9598 10.4216C15.9598 10.154 15.8536 9.89734 15.6643 9.70812C15.4751 9.51889 15.2185 9.4126 14.9509 9.4126H12.4042C11.8605 9.41265 11.3336 9.60089 10.9129 9.94534L7.74 12.6178C7.61874 12.7199 7.46532 12.7759 7.30681 12.7759H3.85273C3.72023 12.7759 3.58903 12.802 3.46661 12.8527C3.3442 12.9034 3.23296 12.9777 3.13927 13.0714C3.04558 13.1651 2.97127 13.2763 2.92055 13.3987C2.86984 13.5211 2.84375 13.6524 2.84375 13.7849C2.84375 13.9174 2.86984 14.0485 2.92055 14.1709C2.97127 14.2934 3.04558 14.4046 3.13927 14.4983C3.23296 14.592 3.3442 14.6663 3.46661 14.717C3.58903 14.7677 3.72023 14.7939 3.85273 14.7939H7.24021C7.87639 14.7939 8.49196 14.5683 8.97772 14.1575L9.73104 13.5198L11.2519 15.4759L12.7533 14.1205Z" fill="#FFDDA1"/>
<path d="M17.5969 12.9797L17.0325 11.4279C16.871 11.2598 16.6604 11.1469 16.4309 11.1055C16.2014 11.0641 15.9647 11.0962 15.7545 11.1972C15.5444 11.3183 15.3809 11.5062 15.29 11.731C15.199 11.9557 15.1859 12.2045 15.2527 12.4376L15.7007 13.6692C15.7193 13.72 15.7254 13.7747 15.7184 13.8284C15.7114 13.882 15.6915 13.9333 15.6605 13.9777C15.6295 14.022 15.5882 14.0583 15.5401 14.0833C15.492 14.1082 15.4386 14.1213 15.3846 14.1212H12.7531L11.2518 15.4766V20.5108C11.2518 20.7784 11.358 21.0351 11.5472 21.2242C11.7365 21.4135 11.9932 21.5198 12.2608 21.5198C12.5283 21.5198 12.785 21.4135 12.9742 21.2242C13.1634 21.0351 13.2697 20.7784 13.2697 20.5108V16.1385H15.2998C15.7702 16.1486 16.2338 16.0244 16.6363 15.7807C17.0929 15.4943 17.4373 15.0599 17.6121 14.5502C17.7869 14.0404 17.7816 13.486 17.5969 12.9797Z" fill="#73AEF2"/>
<path d="M6.87865 11.0936C7.80739 11.0936 8.56029 10.3407 8.56029 9.41198C8.56029 8.48324 7.80739 7.73035 6.87865 7.73035C5.94991 7.73035 5.19702 8.48324 5.19702 9.41198C5.19702 10.3407 5.94991 11.0936 6.87865 11.0936Z" fill="#FFDDA1" stroke="#191919" stroke-linecap="round" stroke-linejoin="round"/>
<path d="M15.2529 12.4375L15.7009 13.6691C15.7195 13.72 15.7255 13.7746 15.7186 13.8283C15.7116 13.882 15.6917 13.9332 15.6607 13.9776C15.6297 14.022 15.5884 14.0582 15.5403 14.0833C15.4922 14.1082 15.4389 14.1212 15.3847 14.1212H12.7539L11.2929 12.2425L12.193 11.5066C12.2528 11.4576 12.3276 11.4308 12.4048 11.4306H14.9509C15.2185 11.4306 15.4751 11.3242 15.6643 11.135C15.8536 10.9458 15.9598 10.6892 15.9598 10.4216C15.9598 10.154 15.8536 9.89734 15.6643 9.70812C15.4751 9.51889 15.2185 9.4126 14.9509 9.4126H12.4042C11.8605 9.41265 11.3336 9.60089 10.9129 9.94534L7.74 12.6178C7.61874 12.7199 7.46532 12.7759 7.30681 12.7759H3.85273C3.72023 12.7759 3.58903 12.802 3.46661 12.8527C3.3442 12.9034 3.23296 12.9777 3.13927 13.0714C3.04558 13.1651 2.97127 13.2763 2.92055 13.3987C2.86984 13.5211 2.84375 13.6524 2.84375 13.7849C2.84375 13.9174 2.86984 14.0485 2.92055 14.1709C2.97127 14.2934 3.04558 14.4046 3.13927 14.4983C3.23296 14.592 3.3442 14.6663 3.46661 14.717C3.58903 14.7677 3.72023 14.7939 3.85273 14.7939H7.24021C7.87639 14.7939 8.49196 14.5683 8.97772 14.1575L9.73104 13.5198L11.2519 15.4759V20.5107C11.2519 20.7783 11.3582 21.035 11.5475 21.2242C11.7366 21.4134 11.9933 21.5197 12.2609 21.5197C12.5285 21.5197 12.7851 21.4134 12.9744 21.2242C13.1636 21.035 13.2699 20.7783 13.2699 20.5107V16.1385H15.3C15.7704 16.1486 16.234 16.0245 16.6365 15.7806C17.093 15.4942 17.4375 15.0599 17.6123 14.55C17.7871 14.0403 17.7817 13.486 17.5971 12.9797L17.0327 11.4279" stroke="#191919" stroke-linecap="round" stroke-linejoin="round"/>
<path d="M11.2511 15.4759L12.7531 14.1205" stroke="#191919" stroke-linecap="round" stroke-linejoin="round"/>
</g>
<defs>
<clipPath id="clip0_13127_7103">
<rect width="16.25" height="16.25" fill="white" transform="translate(2.16667 6.5)"/>
</clipPath>
</defs>
</svg>
